<?xml version="1.0" standalone="no"?>
<!DOCTYPE svg PUBLIC "-//W3C//DTD SVG 20010904//EN"
 "http://www.w3.org/TR/2001/REC-SVG-20010904/DTD/svg10.dtd">
<svg version="1.0" xmlns="http://www.w3.org/2000/svg"
 width="700.000000pt" height="700.000000pt" viewBox="0 0 700.000000 700.000000"
 preserveAspectRatio="xMidYMid meet">
<metadata>
Created by potrace 1.11, written by Peter Selinger 2001-2013
</metadata>
<g transform="translate(0.000000,700.000000) scale(0.100000,-0.100000)"
fill="#000000" stroke="none">
<path d="M3387 6124 c-1 -1 -42 -5 -92 -8 -49 -3 -99 -8 -111 -10 -12 -2 -45
-7 -75 -11 -30 -3 -61 -8 -69 -10 -8 -2 -29 -7 -47 -10 -199 -33 -488 -134
-698 -243 -619 -321 -1097 -892 -1303 -1557 -17 -55 -33 -111 -36 -125 -3 -14
-7 -34 -10 -45 -19 -81 -26 -118 -35 -175 -6 -36 -13 -75 -15 -87 -24 -118
-24 -548 0 -683 2 -14 7 -43 10 -65 44 -308 203 -740 355 -962 16 -23 29 -44
29 -47 0 -6 113 -166 141 -201 161 -197 316 -348 489 -479 41 -31 80 -60 85
-64 6 -4 46 -30 90 -57 444 -276 909 -410 1420 -408 122 0 271 9 305 18 8 2
38 6 65 10 28 3 57 8 65 10 8 2 33 6 55 10 53 7 211 48 305 78 602 195 1128
619 1458 1177 105 178 214 436 262 620 7 25 14 52 16 60 2 8 15 68 28 134 36
173 48 302 49 491 1 121 -9 299 -19 349 -2 11 -7 41 -10 66 -3 25 -15 88 -26
140 -163 781 -690 1460 -1403 1810 -319 156 -600 236 -944 266 -66 6 -329 12
-334 8z m338 -448 c53 -6 100 -13 200 -31 323 -55 689 -229 972 -460 61 -49
247 -236 293 -294 129 -160 239 -340 316 -516 55 -126 121 -339 139 -445 3
-19 10 -60 16 -90 28 -157 31 -529 4 -655 -2 -11 -6 -33 -9 -50 -39 -256 -150
-551 -301 -794 -202 -326 -520 -618 -863 -790 -180 -91 -411 -171 -562 -196
-19 -3 -59 -10 -89 -15 -184 -33 -507 -32 -696 2 -92 16 -253 55 -320 76 -462
150 -878 466 -1148 872 -196 294 -327 664 -354 1000 -7 78 -9 315 -3 385 53
718 481 1384 1115 1736 164 91 391 181 540 215 82 18 243 44 305 50 41 3 76 7
77 8 6 5 314 -2 368 -8z"/>
<path d="M3425 5454 c-56 -21 -112 -78 -131 -137 -38 -114 23 -234 138 -273
94 -31 191 3 248 87 31 46 34 58 34 117 -1 102 -51 176 -142 207 -55 18 -94
18 -147 -1z"/>
<path d="M2197 4944 c-154 -55 -203 -245 -91 -357 140 -139 375 -44 374 152
-1 145 -150 253 -283 205z"/>
<path d="M4263 4573 c-175 -173 -395 -390 -488 -483 l-171 -170 -39 11 c-71
20 -205 -5 -288 -54 -54 -32 -138 -121 -167 -176 -30 -59 -49 -161 -45 -232 6
-83 43 -184 82 -227 7 -7 18 -21 25 -30 38 -51 155 -123 224 -137 278 -57 526
130 539 407 1 31 -1 72 -5 90 -7 33 -5 36 479 521 l486 488 -157 153 -157 153
-318 -314z"/>
<path d="M1676 3706 c-42 -16 -100 -67 -121 -106 -21 -40 -28 -112 -15 -159
12 -47 68 -114 114 -138 42 -22 151 -23 192 -1 69 38 124 125 124 198 0 73
-55 162 -123 197 -42 21 -125 26 -171 9z"/>
<path d="M5178 3706 c-151 -53 -195 -248 -80 -358 46 -45 65 -54 124 -63 202
-30 329 230 180 370 -60 57 -148 77 -224 51z"/>
<path d="M2175 2462 c-64 -31 -110 -83 -122 -138 -23 -104 14 -195 101 -248
61 -38 141 -41 206 -7 82 43 120 109 116 203 -2 78 -32 132 -96 174 -54 36
-148 43 -205 16z"/>
<path d="M4665 2469 c-79 -23 -145 -117 -145 -205 1 -124 97 -218 221 -218
144 1 245 142 203 285 -32 109 -161 173 -279 138z"/>
</g>
</svg>
